<svg width="512" height="512" viewBox="0 0 512 512" fill="none" xmlns="http://www.w3.org/2000/svg">
<path d="M316.875 106.75C317.613 106.749 318.351 106.749 319.111 106.748C330.323 106.764 341.092 107.24 352 110C353.033 110.249 353.033 110.249 354.086 110.504C375.652 115.836 395.042 126.068 412.293 139.934C414.526 141.638 416.491 142.807 419 144C419.63 143.339 420.26 142.678 420.908 141.996C423.265 139.537 425.635 137.092 428.015 134.656C429.04 133.601 430.059 132.54 431.073 131.475C432.535 129.939 434.017 128.423 435.504 126.91C436.831 125.535 436.831 125.535 438.186 124.133C441.551 121.582 443.819 121.17 448 121C450.438 121.938 450.438 121.938 452 124C452.73 127.353 452.925 128.78 452 132C448.993 136.174 445.305 139.633 441.611 143.186C440.494 144.289 439.38 145.394 438.266 146.5C435.87 148.875 433.461 151.237 431.042 153.59C427.22 157.309 423.427 161.058 419.638 164.812C412.279 172.096 404.892 179.352 397.499 186.602C388.085 195.838 378.677 205.08 369.307 214.36C365.537 218.091 361.751 221.804 357.951 225.505C355.593 227.807 353.25 230.124 350.91 232.444C349.821 233.519 348.726 234.587 347.624 235.649C346.123 237.098 344.644 238.567 343.17 240.042C342.335 240.86 341.501 241.677 340.642 242.519C338.674 244.946 338.674 244.946 339.222 248.158C339.479 249.096 339.736 250.034 340 251C340.869 258.7 339.569 264.649 335 271C328.549 277.188 323.117 278.377 314.297 278.27C308.719 277.813 305.11 276.218 301.254 272.164C296.786 266.571 294.527 261.379 294.75 254.078C295.53 247.595 298.341 242.556 303 238C309.35 233.143 316.293 233.378 324 234C324.644 234.235 325.287 234.47 325.951 234.712C328.079 235.243 328.079 235.243 329.841 233.767C330.469 233.131 331.096 232.496 331.743 231.841C332.46 231.126 333.177 230.412 333.916 229.676C334.68 228.889 335.444 228.103 336.23 227.293C337.021 226.497 337.813 225.702 338.628 224.882C341.159 222.328 343.673 219.758 346.187 217.188C347.894 215.464 349.602 213.742 351.311 212.021C354.428 208.87 357.546 205.717 360.645 202.548C361.271 201.909 361.896 201.271 362.54 200.614C364.088 199.048 364.088 199.048 365 197C364.43 196.728 363.86 196.456 363.273 196.176C360.951 194.974 358.82 193.607 356.625 192.188C339.669 181.944 318.426 178.88 299.187 183.5C278.358 189.986 261.127 202.598 250.793 222.137C242.099 239.899 240.648 260.172 246.633 278.99C247.947 282.719 249.428 286.372 251 290C252.295 289.76 252.295 289.76 253.617 289.516C267.663 287.375 280.419 289.686 292 298C301.252 304.889 307.207 313.745 310 325C310.061 326.999 310.076 329.001 310 331C332.224 330.486 350.991 326.29 368 311C368.611 310.482 369.222 309.964 369.852 309.43C384.614 296.015 391.004 276.086 392.438 256.75C393 253 393 253 394.625 250.375C397 249 397 249 400.562 249C404 250 404 250 405.719 251.574C407.527 254.997 407.238 258.067 406.938 261.812C406.883 262.564 406.828 263.316 406.772 264.091C404.707 287.852 393.314 308.917 375.631 324.644C359.554 338.012 339.407 345.281 318.562 345.062C317.736 345.058 316.909 345.053 316.057 345.049C314.038 345.037 312.019 345.019 310 345C309.713 346.219 309.425 347.439 309.129 348.695C306.19 360.385 299.177 370.087 288.875 376.438C287.265 377.319 285.64 378.176 284 379C283.336 379.339 282.672 379.678 281.988 380.027C278.561 381.64 275.781 382.344 272 382C272 382.66 272 383.32 272 384C274.14 384.476 276.279 384.951 278.419 385.425C280.046 385.787 281.671 386.153 283.295 386.524C320.941 395.057 356.63 389.685 390 370C396.895 365.565 402.959 360.414 408.906 354.785C411 353 411 353 414 352C414.691 350.679 415.353 349.343 416 348C417.298 346.531 418.637 345.097 420 343.688C440.627 321.041 450.645 291.401 452.091 261.174C452.183 259.676 452.183 259.676 452.277 258.148C452.321 257.253 452.365 256.358 452.41 255.435C453.178 252.267 454.478 251.012 457 249C460 248.5 460 248.5 463 249C465.895 251.178 466.893 252.357 467.496 255.969C466.801 297.865 450.053 335.489 420.5 365C416.957 368.176 413.785 371.119 410 374C408.726 374.998 408.726 374.998 407.426 376.016C381.445 395.744 350.525 405.223 318.125 405.25C317.018 405.251 317.018 405.251 315.889 405.252C304.677 405.236 293.908 404.76 283 402C282.312 401.834 281.623 401.667 280.914 401.496C269.012 398.553 256.393 394.359 246.003 387.725C239.948 383.896 235.14 383.301 228.071 383.42C226.489 383.416 226.489 383.416 224.874 383.412C222.597 383.41 220.32 383.42 218.044 383.439C214.431 383.469 210.819 383.468 207.207 383.459C198.235 383.443 189.263 383.48 180.291 383.515C172.703 383.543 165.116 383.551 157.528 383.532C153.985 383.531 150.443 383.56 146.9 383.591C132.818 383.621 121.368 383.164 110.68 372.875C103.316 364.656 100.347 355.071 100.645 344.098C101.536 336.331 103.969 329.963 109 324C108.649 320.507 107.167 318.87 104.75 316.438C95.9454 306.781 94.251 295.576 94.8296 283.026C95.7179 272.465 101.453 263.455 108.875 256.156C117.754 248.905 129.574 244.993 141 246C151.719 247.619 159.467 251.499 168 258C167.965 257.389 167.93 256.778 167.895 256.148C167.215 233.161 172.973 210.545 183 190C183.47 189.031 183.47 189.031 183.95 188.042C191.478 172.738 201.796 159.892 214 148C214.489 147.455 214.977 146.909 215.48 146.348C240.81 119.005 280.667 106.78 316.875 106.75ZM218.594 162.936C212.646 169.161 207.56 175.705 203 183C202.613 183.613 202.225 184.226 201.826 184.857C188.879 205.658 182.617 228.621 182 253C183.149 252.954 184.297 252.907 185.48 252.859C202.626 252.374 216.038 256.403 229 268C228.977 267.103 228.954 266.206 228.93 265.281C228.559 239.661 234.251 215.344 252 196C252.635 195.296 253.271 194.592 253.926 193.867C268.562 178.439 290.506 168.471 311.75 167.797C336.5 167.428 355.431 174.287 376 188C386.56 177.44 397.12 166.88 408 156C390.68 134.35 357.992 123.711 331.364 120.702C288.673 116.803 248.524 132.574 218.594 162.936Z" fill="#60B6FD"/>
<path d="M316.875 106.75C317.613 106.749 318.351 106.749 319.111 106.748C330.323 106.764 341.092 107.24 352 110C353.033 110.249 353.033 110.249 354.086 110.504C375.652 115.836 395.042 126.068 412.293 139.934C414.526 141.638 416.491 142.807 419 144C419.63 143.339 420.26 142.678 420.908 141.996C423.265 139.537 425.635 137.092 428.015 134.656C429.04 133.601 430.059 132.54 431.073 131.475C432.535 129.939 434.017 128.423 435.504 126.91C436.831 125.535 436.831 125.535 438.186 124.133C441.551 121.582 443.819 121.17 448 121C450.438 121.938 450.438 121.938 452 124C452.73 127.353 452.925 128.78 452 132C448.993 136.174 445.305 139.633 441.611 143.186C440.494 144.289 439.38 145.394 438.266 146.5C435.87 148.875 433.461 151.237 431.042 153.59C427.22 157.309 423.427 161.058 419.638 164.812C412.279 172.096 404.892 179.352 397.499 186.602C388.085 195.838 378.677 205.08 369.307 214.36C365.537 218.091 361.751 221.804 357.951 225.505C355.593 227.807 353.25 230.124 350.91 232.444C349.821 233.519 348.726 234.587 347.624 235.649C346.123 237.098 344.644 238.567 343.17 240.042C342.335 240.86 341.501 241.677 340.642 242.519C338.674 244.946 338.674 244.946 339.222 248.158C339.479 249.096 339.736 250.034 340 251C340.869 258.7 339.569 264.649 335 271C328.549 277.188 323.117 278.377 314.297 278.27C308.719 277.813 305.11 276.218 301.254 272.164C296.786 266.571 294.527 261.379 294.75 254.078C295.53 247.595 298.341 242.556 303 238C309.35 233.143 316.293 233.378 324 234C324.644 234.235 325.287 234.47 325.951 234.712C328.079 235.243 328.079 235.243 329.841 233.767C330.469 233.131 331.096 232.496 331.743 231.841C332.46 231.126 333.177 230.412 333.916 229.676C334.68 228.889 335.444 228.103 336.23 227.293C337.021 226.497 337.813 225.702 338.628 224.882C341.159 222.328 343.673 219.758 346.187 217.188C347.894 215.464 349.602 213.742 351.311 212.021C354.428 208.87 357.546 205.717 360.645 202.548C361.27 201.909 361.896 201.271 362.54 200.614C364.088 199.048 364.088 199.048 365 197C364.43 196.728 363.86 196.456 363.273 196.176C360.951 194.974 358.82 193.607 356.625 192.188C339.669 181.944 318.426 178.88 299.187 183.5C278.358 189.986 261.127 202.598 250.793 222.137C241.672 240.771 240.831 261.567 247.312 281.141C248.468 284.456 249.709 287.735 251 291C249.711 291.672 248.419 292.337 247.125 293C246.406 293.371 245.686 293.743 244.945 294.125C243 295 243 295 241 295C240.804 294.212 240.608 293.425 240.406 292.613C238.646 286.203 236.629 281.155 232.812 275.688C224.778 263.239 227.925 247.273 230.711 233.48C234.163 219.625 241.34 206.499 251 196C251.709 195.223 252.418 194.445 253.148 193.645C268.186 177.895 289.875 167.491 311.75 166.797C336.5 166.428 355.431 173.287 376 187C386.23 176.77 396.46 166.54 407 156C383.033 132.033 348.968 121.311 315.62 120.977C279.064 121.297 244.663 137.472 219.236 163.293C213.426 169.395 208.479 175.872 204 183C203.417 183.921 203.417 183.921 202.822 184.861C189.803 205.782 184.336 228.713 182 253C180.605 253.483 179.209 253.961 177.812 254.438C177.035 254.704 176.258 254.971 175.457 255.246C172.986 256.004 170.536 256.511 168 257C167.518 233.519 172.729 211.047 183 190C183.313 189.354 183.627 188.708 183.95 188.042C191.478 172.738 201.796 159.892 214 148C214.489 147.455 214.977 146.909 215.48 146.348C240.81 119.005 280.667 106.78 316.875 106.75Z" fill="#4187B5"/>
<path d="M460 248.5C463.74 249.123 464.698 250.028 467 253C471.906 282.356 457.263 318.084 440.8 341.723C431.999 353.965 422.022 364.85 410 374C409.151 374.665 408.301 375.33 407.426 376.016C381.445 395.744 350.525 405.223 318.125 405.25C317.018 405.251 317.018 405.251 315.889 405.252C304.677 405.236 293.908 404.76 283 402C281.967 401.751 281.967 401.751 280.914 401.496C266.148 397.845 252.076 391.748 239 384C239 383.67 239 383.34 239 383C272.916 382.025 272.916 382.025 289 388C323.409 396.602 360.075 387.653 390 370C396.895 365.565 402.959 360.414 408.906 354.785C411 353 413 351 413 351C414.298 349.531 418.637 345.097 420 343.688C440.627 321.041 450.645 291.401 452.091 261.174C452.152 260.176 452.214 259.177 452.277 258.148C452.321 257.253 452.365 256.358 452.41 255.435C453.446 251.158 455.733 249.211 460 248.5Z" fill="#4087B5"/>
<path d="M161.977 253.402C164.091 255.071 165.493 256.779 167 259C166.287 259.473 165.574 259.946 164.84 260.434C152.817 268.735 144.706 279.392 142 294C141.66 297.164 141.499 300.321 141.375 303.5C141.336 304.322 141.298 305.145 141.258 305.992C141.165 307.994 141.081 309.997 141 312C140.201 312.003 139.402 312.005 138.578 312.008C128.161 312.375 120.188 315.565 112 322C104.082 318.517 100.234 311.138 96.9453 303.516C93.2361 293.645 93.8371 281.579 97.6094 271.816C103.664 259.553 111.662 253.066 124.07 247.98C137.037 243.641 150.551 246.285 161.977 253.402Z" fill="#FEBE31"/>
<path d="M400.562 249C404 250 404 250 405.719 251.574C407.527 254.997 407.238 258.067 406.938 261.812C406.883 262.564 406.828 263.316 406.772 264.091C404.707 287.852 393.314 308.917 375.631 324.644C359.554 338.012 339.407 345.281 318.562 345.062C317.736 345.058 316.909 345.053 316.057 345.049C314.038 345.037 312.019 345.019 310 345C310 340.38 310 335.76 310 331C311.114 330.974 312.227 330.948 313.375 330.922C334.329 330.233 352.058 325.331 368 311C368.917 310.223 368.917 310.223 369.852 309.43C384.614 296.015 391.004 276.086 392.438 256.75C393 253 393 253 394.625 250.375C397 249 397 249 400.562 249Z" fill="#4187B5"/>
<path d="M327.875 235.5C332.997 239.09 338.665 244.769 340 251C340.991 258.669 339.537 264.693 335 271C328.549 277.188 323.117 278.377 314.297 278.27C308.719 277.813 305.11 276.218 301.254 272.164C296.786 266.571 294.527 261.379 294.75 254.078C295.53 247.595 298.341 242.556 303 238C309.73 232.853 320.211 231.625 327.875 235.5Z" fill="#F96D85"/>
<path d="M139.562 196C143 197 143 197 144.691 198.531C146.587 202.107 146.435 205.554 146.375 209.5C146.387 210.259 146.398 211.019 146.41 211.801C146.393 215.094 146.245 217.55 144.656 220.469C142.163 222.774 140.36 223 137 223C134.34 221.594 134.34 221.594 132 219C131.278 215.819 131.347 212.748 131.437 209.5C131.427 208.645 131.416 207.791 131.404 206.91C131.45 202.965 131.514 200.696 133.812 197.406C136 196 136 196 139.562 196Z" fill="#4187B4"/>
<path d="M58 282.562C58.807 282.555 59.6139 282.548 60.4453 282.541C63.9326 282.578 66.3881 282.691 69.5312 284.277C71.2867 286.336 71.5406 287.317 71.5 290C71.5103 290.681 71.5206 291.361 71.5312 292.062C71 294 71 294 69.4961 295.723C65.9164 297.554 62.4907 297.474 58.5625 297.437C57.8116 297.457 57.0607 297.477 56.2871 297.498C52.3805 297.495 50.4078 297.25 47 295.16C45 293 45 293 44.4375 290C45.8861 282.274 51.3829 282.399 58 282.562Z" fill="#4187B5"/>
<path d="M81 222C83.5205 223.511 85.4218 225.441 87.4375 227.563C87.9783 228.076 88.519 228.59 89.0762 229.119C92.0246 232.12 92.9404 233.456 93.4141 237.781C93 241 93 241 91.9375 242.938C88.6582 244.736 86.6919 244.605 83 244C80.0201 241.965 77.5428 239.548 75 237C74.1956 236.319 73.3913 235.639 72.5625 234.938C70.4433 232.31 70.1394 230.346 70 227C71.9689 221.396 75.4358 221.396 81 222Z" fill="#4187B4"/>
</svg>
